<svg width="48" height="48" viewBox="0 0 48 48" fill="none" xmlns="http://www.w3.org/2000/svg">
<path d="M34.7927 21.775C34.9459 19.7113 37.7964 19.4421 39.3389 19.899C40.5146 20.2473 41.1148 21.2489 41.0839 22.4518H38.4496C38.5108 21.6675 37.1597 22.2713 37.8247 22.4851L37.8235 22.4839C38.667 22.7296 39.5884 22.747 40.3368 23.2805C41.5421 24.1376 41.5433 26.1692 40.3231 27.0103C39.2154 27.7747 36.9689 27.7413 35.85 27.0103C35.0546 26.4903 34.7001 25.6258 34.6952 24.6909H37.3629C37.432 25.1256 37.8581 25.1972 38.2286 25.112C38.4175 25.0688 38.4706 24.8761 38.3163 24.7427C38.0841 24.5414 36.8256 24.3907 36.4341 24.287C35.1843 23.9547 34.7001 23.0347 34.7927 21.775Z" fill="#010001"/>
<path d="M6.19231 22.9446C6.19231 22.9446 6.38136 20.2877 6.40723 19.9484H9.40467C9.36885 20.2509 9.27125 20.5548 9.24161 20.8574C9.21073 21.1748 9.12797 21.5119 9.07734 21.8454C9.07117 21.8849 9.1045 21.9306 9.09832 21.9677C9.07362 22.1109 8.97983 22.2147 9.00823 22.4172C8.97242 22.4234 8.97976 22.4567 8.97482 22.4827C8.88344 22.9767 8.78341 23.5028 8.71178 23.998C8.70931 24.019 8.71425 24.0425 8.71178 24.0635C8.69696 24.1758 8.66479 24.2759 8.67837 24.3932L8.65124 24.4154C8.64013 24.4401 8.65001 24.4698 8.64508 24.492C8.56728 24.886 8.31652 26.0013 8.34863 26.3359L8.3227 26.3581C8.3116 26.3828 8.32149 26.4125 8.31655 26.4347C8.2474 26.7385 8.23009 27.0547 8.15229 27.3572H4.9907L4.7437 23.7029L4.46208 27.3584H1.3005C1.19081 26.7277 0 19.9484 0 19.9484H2.88129L3.23672 22.9446L3.34322 19.9472H5.97751L6.19231 22.9446Z" fill="#010001"/>
<path d="M12.9924 19.9472V27.3572H9.89614V19.9472H12.9924Z" fill="#010001"/>
<path d="M18.0472 23.3397C18.1077 23.3397 17.9139 22.2901 17.9027 22.1999C17.8076 21.4453 17.7792 20.7092 17.8002 19.9472H20.6655V27.3572H17.2729L16.3997 23.9647C16.3516 23.966 16.5023 24.6736 16.5109 24.7427C16.6283 25.6159 16.6233 26.4767 16.6134 27.3572H13.7482V19.9472H17.1741L18.0472 23.3397Z" fill="#010001"/>
<path d="M27.647 22.6147H25.0448V22.9446H27.2851V25.3491H25.0448V27.3572H21.982V19.9472H27.647V22.6147Z" fill="#010001"/>
<path fill-rule="evenodd" clip-rule="evenodd" d="M34.9916 27.3572H31.9128L31.8695 27.3016L31.662 26.373L30.4011 26.3667L30.1837 27.3572H27.1209L29.2266 19.962H32.877L34.9916 27.3572ZM30.8074 24.0314H31.2693L31.0544 22.5827L30.8074 24.0314Z" fill="#010001"/>
<path d="M48 22.6814H46.3537V27.3572H43.2909V22.7136H41.6434V19.9472H48V22.6814Z" fill="#010001"/>
<path d="M41.4555 26.0774C40.2773 34.6877 32.8931 41.3213 23.9593 41.3213C15.6053 41.3213 8.60639 35.5209 6.76955 27.7278H7.27743C9.10388 35.2455 15.8796 40.8273 23.9593 40.8273C32.2544 40.8273 39.1752 34.9438 40.7766 27.1221C41.096 26.8329 41.3206 26.4695 41.4555 26.0774Z" fill="#D62F2E"/>
<path d="M9.52566 27.7278H11.5123C13.223 32.9667 18.1491 36.7518 23.9593 36.7518C29.7857 36.7518 34.723 32.9454 36.4205 27.6836C36.9356 27.8549 37.5201 27.9388 38.0889 27.9416C38.7087 27.9447 39.3499 27.8517 39.8986 27.6425C38.1189 34.7901 31.6577 40.0863 23.9593 40.0863C16.2914 40.0863 9.85096 34.8322 8.04123 27.7278H8.4654L9.52566 21.4556V27.7278Z" fill="#D62F2E"/>
<path d="M31.3647 26.7419L31.526 27.4636L31.7318 27.7278H33.5056C31.9239 31.4357 28.2452 34.0348 23.9593 34.0348C19.6734 34.0348 15.9946 31.4357 14.4129 27.7278H16.9799L16.9801 27.7057L16.9858 27.7278H19.1502C20.3056 29.0925 22.0311 29.9592 23.9593 29.9592C25.8874 29.9592 27.613 29.0925 28.7683 27.7278H30.4818L30.6988 26.7387L31.3647 26.7419Z" fill="#D62F2E"/>
<path d="M36.5033 19.9043C37.4364 19.6225 38.556 19.6672 39.3389 19.8991L39.3935 19.9158C39.6266 19.99 39.8363 20.0905 40.0223 20.2134C40.178 20.9428 40.2855 21.6901 40.3409 22.4518H38.4497C38.5108 21.6676 37.1597 22.2713 37.8247 22.4851L37.8235 22.4839C38.667 22.7297 39.5884 22.747 40.3368 23.2805L40.3809 23.3131C40.3833 23.4287 40.3849 23.5445 40.3849 23.6607C40.3849 24.8738 40.2532 26.0561 40.0037 27.1943C39.0525 27.6539 37.5926 27.6857 36.529 27.3294C36.7759 26.4822 36.9395 25.5996 37.0102 24.6909H37.3629C37.4321 25.1256 37.8581 25.1973 38.2286 25.1121C38.4116 25.0702 38.4672 24.888 38.3301 24.7554L38.3163 24.7428C38.1599 24.6072 37.5384 24.4946 37.0294 24.4039C37.0432 24.1579 37.0504 23.9101 37.0504 23.6607C37.0504 22.3551 36.8591 21.0941 36.5033 19.9043Z" fill="#D62F2E"/>
<path d="M9.40469 19.9484L8.15231 27.3573H7.95126C7.678 26.1691 7.5336 24.9318 7.5336 23.6607C7.5336 22.384 7.67916 21.1413 7.95475 19.9484H9.40469Z" fill="#D62F2E"/>
<path d="M17.1742 19.9472L17.7952 22.3603C17.7071 22.7799 17.6607 23.2149 17.6607 23.6607C17.6607 25.0419 18.1056 26.319 18.8595 27.3573H17.2729L16.3998 23.9647C16.3516 23.966 16.5023 24.6736 16.511 24.7428C16.6136 25.5067 16.6227 26.2613 16.6167 27.0279L16.6135 27.3573H14.2632C14.0366 26.7633 13.863 26.1433 13.7482 25.5028V21.8184C13.8641 21.1719 14.04 20.5462 14.2697 19.9472H17.1742Z" fill="#D62F2E"/>
<path fill-rule="evenodd" clip-rule="evenodd" d="M32.877 19.962L34.2682 24.8277C34.1696 25.709 33.9606 26.5569 33.6553 27.3573H31.9128L31.8695 27.3017L31.662 26.373L30.4011 26.3667L30.1838 27.3573H29.059C29.8129 26.319 30.2578 25.0419 30.2578 23.6607C30.2578 22.3535 29.8596 21.1394 29.1779 20.1329L29.2266 19.962H32.877ZM30.8074 24.0314H31.2693L31.0544 22.5827L30.8074 24.0314Z" fill="#D62F2E"/>
<path d="M11.4024 19.9472C11.0548 21.1245 10.8681 22.3708 10.8681 23.6607C10.8681 24.9444 11.0531 26.185 11.3975 27.3573H9.89616V19.9472H11.4024Z" fill="#D62F2E"/>
<path d="M7.19529 19.9484C6.93176 21.1439 6.79259 22.386 6.79259 23.6607C6.79259 24.9298 6.9305 26.1666 7.1918 27.3573H6.68645C6.43256 26.1651 6.29858 24.9285 6.29858 23.6607C6.29858 22.3873 6.43365 21.1454 6.68971 19.9484H7.19529Z" fill="#D62F2E"/>
<path d="M41.1121 24.3524C41.3328 25.0143 41.2668 25.7798 40.912 26.3761C41.0173 25.7134 41.0849 25.0381 41.1121 24.3524Z" fill="#D62F2E"/>
<path d="M41.2729 22.8223V23.0842H41.6104C41.6165 23.2756 41.6199 23.4678 41.6199 23.6607C41.6199 24.033 41.6083 24.4027 41.5856 24.7693C41.5298 24.3405 41.3778 23.9195 41.1252 23.5586C41.1238 23.3119 41.1174 23.0665 41.1057 22.8223H41.2729Z" fill="#D62F2E"/>
<path d="M23.9593 13.2866C29.6887 13.2866 34.3334 17.9312 34.3334 23.6607C34.3334 23.6758 34.3331 23.6909 34.333 23.706L33.1565 19.5915H28.9469L28.9004 19.7547C27.7468 18.2973 25.9623 17.3621 23.9593 17.3621C22.039 17.3621 20.3198 18.2217 19.1645 19.5767H14.4202C16.0059 15.8778 19.6799 13.2866 23.9593 13.2866Z" fill="#D62F2E"/>
<path d="M40.3639 22.8223C40.3645 22.8337 40.3648 22.8452 40.3654 22.8566C40.3459 22.8449 40.3264 22.8335 40.3068 22.8223H40.3639Z" fill="#D62F2E"/>
<path d="M41.0154 21.703C41.0599 21.9059 41.0835 22.1191 41.085 22.3397L41.084 22.4518H41.0837C41.0662 22.2007 41.0436 21.951 41.0154 21.703Z" fill="#D62F2E"/>
<path d="M18.8718 19.9472C18.4242 20.5594 18.084 21.2551 17.88 22.0069C17.8033 21.3194 17.781 20.6441 17.8002 19.9472H18.8718Z" fill="#D62F2E"/>
<path d="M23.9593 6C32.5148 6 39.6492 12.0837 41.2729 20.161V21.2581C41.1684 20.9623 41.019 20.6893 40.8256 20.4486C39.3216 12.5029 32.3423 6.494 23.9593 6.494C15.8852 6.494 9.11322 12.068 7.28117 19.5779H6.77317C8.61569 11.7927 15.6109 6 23.9593 6Z" fill="#D62F2E"/>
<path d="M23.9593 7.23501C31.6738 7.23501 38.146 12.5534 39.9098 19.7236C39.7834 19.6622 39.6492 19.6085 39.5075 19.5633L39.4442 19.5438C38.6105 19.2968 37.4396 19.2465 36.4416 19.5359C36.425 19.5407 36.4085 19.5459 36.392 19.5509C34.6685 14.3342 29.7536 10.5695 23.9593 10.5695C18.1553 10.5695 13.2338 14.3466 11.518 19.5767H9.52566V19.5779H8.04521C9.86042 12.4814 16.2971 7.23501 23.9593 7.23501Z" fill="#D62F2E"/>
<path d="M34.7927 21.775C34.9459 19.7113 37.7964 19.4421 39.3389 19.899C40.5146 20.2473 41.1148 21.2489 41.0839 22.4518H38.4496C38.5108 21.6675 37.1597 22.2713 37.8247 22.4851L37.8235 22.4839C38.667 22.7297 39.5884 22.747 40.3368 23.2805C41.5421 24.1376 41.5433 26.1692 40.3231 27.0103C39.2154 27.7747 36.9689 27.7413 35.85 27.0103C35.0546 26.4903 34.7001 25.6258 34.6952 24.6909H37.3629C37.432 25.1256 37.8581 25.1972 38.2286 25.112C38.4175 25.0688 38.4706 24.8761 38.3163 24.7427C38.0841 24.5414 36.8256 24.3907 36.4341 24.287C35.1843 23.9547 34.7001 23.0347 34.7927 21.775Z" fill="white"/>
<path d="M6.19231 22.9446C6.19231 22.9446 6.38136 20.2877 6.40723 19.9484H9.40467L8.15229 27.3572H4.9907L4.7437 23.7029L4.46208 27.3584H1.3005C1.19081 26.7277 0 19.9484 0 19.9484H2.88129L3.23672 22.9446L3.34322 19.9472H5.97751L6.19231 22.9446Z" fill="white"/>
<path d="M12.9924 19.9472V27.3572H9.89614V19.9472H12.9924Z" fill="white"/>
<path d="M18.0472 23.3397C18.1077 23.3397 17.9139 22.2901 17.9027 22.1999C17.8076 21.4453 17.7792 20.7092 17.8002 19.9472H20.6655V27.3572H17.2729L16.3997 23.9647C16.3516 23.966 16.5023 24.6736 16.5109 24.7427C16.6283 25.6159 16.6233 26.4767 16.6134 27.3572H13.7482V19.9472H17.1741L18.0472 23.3397Z" fill="white"/>
<path d="M27.647 22.6147H25.0448V22.9446H27.2851V25.3491H25.0448V27.3572H21.982V19.9472H27.647V22.6147Z" fill="white"/>
<path fill-rule="evenodd" clip-rule="evenodd" d="M34.9916 27.3572H31.9128L31.8695 27.3016L31.662 26.373L30.4011 26.3667L30.1837 27.3572H27.1209L29.2266 19.962H32.877L34.9916 27.3572ZM30.8074 24.0314H31.2693L31.0544 22.5827L30.8074 24.0314Z" fill="white"/>
<path d="M48 22.6814H46.3537V27.3572H43.2909V22.7136H41.6434V19.9472H48V22.6814Z" fill="white"/>
<path d="M23.9593 30.5767L24.3426 31.5311L25.3688 31.6007L24.5795 32.2602L24.8304 33.2576L23.9593 32.7108L23.0882 33.2576L23.3391 32.2602L22.5498 31.6007L23.576 31.5311L23.9593 30.5767Z" fill="white"/>
<path d="M20.7481 29.8357L21.1314 30.7902L22.1576 30.8597L21.3683 31.5192L21.6192 32.5167L20.7481 31.9698L19.877 32.5167L20.128 31.5192L19.3386 30.8597L20.3648 30.7902L20.7481 29.8357Z" fill="white"/>
<path d="M27.1703 29.8357L26.787 30.7902L25.7608 30.8597L26.5502 31.5192L26.2992 32.5167L27.1703 31.9698L28.0414 32.5167L27.7905 31.5192L28.5798 30.8597L27.5536 30.7902L27.1703 29.8357Z" fill="white"/>
<path d="M17.7843 27.9832L18.1675 28.9376L19.1937 29.0072L18.4044 29.6667L18.6554 30.6641L17.7843 30.1173L16.9132 30.6641L17.1641 29.6667L16.3748 29.0072L17.401 28.9376L17.7843 27.9832Z" fill="white"/>
<path d="M30.1342 27.9832L29.7509 28.9376L28.7247 29.0072L29.514 29.6667L29.2631 30.6641L30.1342 30.1173L31.0053 30.6641L30.7544 29.6667L31.5437 29.0072L30.5175 28.9376L30.1342 27.9832Z" fill="white"/>
</svg>
